<?xml version="1.0" encoding="utf-8"?>
<!-- Generator: Adobe Illustrator 22.0.1, SVG Export Plug-In . SVG Version: 6.00 Build 0)  -->
<svg version="1.1" id="Layer_1" xmlns="http://www.w3.org/2000/svg" xmlns:xlink="http://www.w3.org/1999/xlink" x="0px" y="0px"
	 viewBox="0 0 18.1 10.7" style="enable-background:new 0 0 18.1 10.7;" xml:space="preserve">
<style type="text/css">
	.st0{fill:#66FFBA;}
	.st1{fill:#808B8C;}
	.st2{fill:#F37B6F;}
</style>
<g>
	<path class="st0" d="M4.1,10.7H2.8c-0.2,0-0.4,0-0.6-0.1c-0.2-0.1-0.4-0.2-0.5-0.3c-0.1-0.1-0.2-0.3-0.3-0.5
		C1.3,9.5,1.3,9.2,1.3,8.9V6.8c0-0.2-0.1-0.3-0.2-0.4C1,6.3,0.9,6.2,0.8,6.1C0.6,6.1,0.5,6.1,0.3,6S0.1,6,0,6V4.6c0.1,0,0.2,0,0.3,0
		s0.3-0.1,0.4-0.1C0.9,4.5,1,4.4,1.1,4.3C1.2,4.1,1.3,4,1.3,3.8V1.7c0-0.3,0-0.6,0.1-0.8c0.1-0.2,0.2-0.4,0.3-0.5S2,0.2,2.2,0.1
		S2.6,0,2.8,0h1.3v1.4H3.5c-0.2,0-0.3,0-0.4,0.1C3,1.5,2.9,1.6,2.9,1.6C2.8,1.7,2.8,1.8,2.8,1.9c0,0.1,0,0.2,0,0.3v1.9
		c0,0.3,0,0.5-0.1,0.7C2.5,4.9,2.4,5,2.3,5.1C2.2,5.2,2.1,5.2,1.9,5.3c-0.1,0-0.3,0-0.4,0.1v0c0.1,0,0.3,0,0.4,0s0.3,0.1,0.4,0.2
		c0.1,0.1,0.2,0.2,0.3,0.4c0.1,0.2,0.1,0.4,0.1,0.7v1.9c0,0.1,0,0.2,0,0.3c0,0.1,0,0.2,0.1,0.3C2.9,9.1,3,9.2,3.1,9.2
		c0.1,0,0.2,0.1,0.4,0.1h0.6V10.7z"/>
	<path class="st1" d="M12,10.6h-1.7V9h0c-0.1,0.1-0.2,0.2-0.3,0.3C10,9.4,9.8,9.5,9.7,9.6C9.5,9.7,9.3,9.8,9.1,9.9
		C9,9.9,8.8,9.9,8.6,9.9c-0.4,0-0.8-0.1-1.2-0.2S6.7,9.4,6.5,9.1C6.2,8.8,6,8.5,5.9,8.1C5.8,7.8,5.7,7.4,5.7,6.9
		c0-0.4,0.1-0.8,0.2-1.2s0.3-0.7,0.5-1c0.2-0.3,0.5-0.5,0.8-0.7c0.3-0.2,0.7-0.3,1.1-0.3c0.4,0,0.7,0.1,1,0.2
		c0.3,0.1,0.6,0.3,0.8,0.6h0V0H12V10.6z M10.4,6.9c0-0.4-0.1-0.8-0.4-1.1S9.4,5.4,8.9,5.4c-0.5,0-0.8,0.1-1.1,0.4S7.5,6.4,7.5,6.9
		s0.1,0.8,0.4,1.1s0.6,0.4,1.1,0.4c0.5,0,0.8-0.1,1.1-0.4S10.4,7.3,10.4,6.9z"/>
	<path class="st2" d="M14,0h1.3c0.2,0,0.4,0,0.6,0.1c0.2,0.1,0.3,0.2,0.5,0.3c0.1,0.1,0.2,0.3,0.3,0.5c0.1,0.2,0.1,0.5,0.1,0.8v2.1
		c0,0.2,0.1,0.3,0.2,0.4c0.1,0.1,0.2,0.2,0.4,0.3c0.1,0.1,0.3,0.1,0.4,0.1c0.1,0,0.3,0,0.3,0V6c-0.1,0-0.2,0-0.3,0
		c-0.1,0-0.3,0.1-0.4,0.1c-0.1,0.1-0.3,0.1-0.4,0.3c-0.1,0.1-0.2,0.3-0.2,0.4v2.1c0,0.3,0,0.6-0.1,0.8c-0.1,0.2-0.2,0.4-0.3,0.5
		c-0.1,0.1-0.3,0.2-0.5,0.3c-0.2,0.1-0.4,0.1-0.6,0.1H14V9.3h0.6c0.2,0,0.3,0,0.4-0.1c0.1,0,0.2-0.1,0.2-0.2s0.1-0.2,0.1-0.3
		c0-0.1,0-0.2,0-0.3V6.6c0-0.3,0-0.5,0.1-0.7s0.2-0.3,0.3-0.4c0.1-0.1,0.2-0.1,0.4-0.2c0.1,0,0.3,0,0.4-0.1v0c-0.1,0-0.3,0-0.4,0
		s-0.3-0.1-0.4-0.2c-0.1-0.1-0.2-0.2-0.3-0.4s-0.1-0.4-0.1-0.7V2.1c0-0.1,0-0.2,0-0.3c0-0.1,0-0.2-0.1-0.3c-0.1-0.1-0.1-0.1-0.2-0.2
		c-0.1,0-0.2-0.1-0.4-0.1H14V0z"/>
</g>
</svg>
